<?xml version="1.0" standalone="no"?>
<!DOCTYPE svg PUBLIC "-//W3C//DTD SVG 20010904//EN"
 "http://www.w3.org/TR/2001/REC-SVG-20010904/DTD/svg10.dtd">
<svg version="1.0" xmlns="http://www.w3.org/2000/svg"
 width="2362.000000pt" height="2362.000000pt" viewBox="0 0 2362.000000 2362.000000"
 preserveAspectRatio="xMidYMid meet">
<metadata>
Created by potrace 1.14, written by Peter Selinger 2001-2017
</metadata>
<g transform="translate(0.000000,2362.000000) scale(0.100000,-0.100000)"
fill="#000000" stroke="none">
<path d="M7890 16444 c-19 -2 -102 -8 -185 -14 -853 -63 -1554 -325 -1970
-736 -729 -722 -610 -1842 328 -3084 141 -186 337 -421 337 -403 0 4 -8 16
-19 27 -34 38 -198 289 -270 416 -389 680 -499 1295 -322 1812 395 1160 2168
1587 4516 1087 1797 -382 3710 -1279 5135 -2408 421 -333 804 -695 1154 -1091
308 -348 609 -806 769 -1170 354 -804 291 -1499 -179 -1999 -157 -167 -325
-286 -569 -406 -326 -160 -704 -262 -1180 -320 l-120 -14 265 4 c892 14 1637
223 2135 598 112 85 278 255 357 367 73 103 161 272 202 388 115 326 112 746
-10 1164 -70 242 -224 583 -374 833 -499 826 -1370 1698 -2450 2451 -2007
1401 -4549 2349 -6676 2489 -199 13 -763 19 -874 9z"/>
<path d="M8160 15323 c-267 -25 -425 -47 -595 -84 -637 -139 -1099 -435 -1323
-849 -74 -138 -130 -316 -156 -500 l-6 -45 37 45 c70 84 148 162 223 224 77
63 216 166 225 166 3 0 49 24 102 54 379 211 910 345 1533 387 246 16 795 6
1060 -20 749 -74 1458 -229 2245 -493 194 -64 489 -172 560 -203 17 -8 82 -35
145 -60 458 -186 985 -447 1400 -694 80 -47 154 -91 165 -97 11 -6 79 -48 150
-94 532 -342 974 -691 1358 -1073 184 -184 323 -342 512 -583 162 -207 364
-557 453 -784 100 -257 141 -443 149 -678 15 -423 -120 -767 -420 -1064 -325
-321 -810 -535 -1475 -648 l-107 -19 85 5 c1001 56 1752 323 2186 776 202 212
322 436 386 719 20 91 23 130 23 309 -1 216 -11 300 -60 485 -90 342 -312 770
-595 1144 -353 469 -866 961 -1447 1391 -81 60 -160 118 -174 129 -90 69 -483
325 -692 450 -1386 830 -3012 1417 -4517 1630 -427 61 -710 81 -1088 79 -169
0 -323 -3 -342 -5z"/>
<path d="M9080 14333 c-229 -17 -486 -62 -684 -119 -486 -142 -907 -428 -1201
-816 -328 -433 -495 -1017 -455 -1593 25 -375 99 -672 234 -950 303 -621 879
-1064 1626 -1250 688 -171 1484 -160 2115 30 203 61 555 209 555 234 0 18
-170 416 -177 414 -4 -1 -49 -27 -100 -57 -420 -254 -876 -376 -1398 -376
-293 1 -555 65 -835 205 -191 96 -347 209 -509 368 -285 281 -469 609 -571
1017 -47 187 -61 307 -67 551 -15 636 109 1111 382 1464 167 216 396 387 633
474 205 75 407 106 702 106 300 0 501 -26 733 -95 226 -67 380 -147 500 -259
120 -114 183 -216 232 -376 46 -152 84 -207 125 -185 45 24 53 68 61 340 4
140 16 349 25 464 l18 209 -22 18 c-13 10 -44 21 -70 24 -26 3 -110 18 -187
32 -77 13 -200 35 -272 48 -147 27 -419 60 -617 75 -117 9 -667 11 -776 3z"/>
<path d="M10255 11906 c-28 -28 -24 -63 9 -76 11 -5 54 -14 95 -20 174 -25
316 -96 396 -197 73 -93 128 -213 390 -848 136 -330 333 -807 437 -1060 105
-253 211 -509 235 -570 25 -60 125 -303 223 -540 97 -236 235 -569 305 -740
217 -526 234 -567 266 -617 36 -56 54 -68 101 -68 84 0 103 36 448 830 396
914 770 1764 982 2235 127 281 291 652 365 825 153 358 211 474 290 578 82
108 173 161 305 177 63 8 81 22 76 57 -5 39 -50 53 -168 52 -58 0 -244 0 -415
0 -479 0 -527 -1 -587 -13 -62 -13 -83 -30 -73 -60 7 -23 19 -28 114 -46 86
-17 114 -33 137 -77 23 -44 13 -125 -32 -256 -93 -268 -1225 -3111 -1239
-3112 -12 0 -6 -13 -638 1655 -129 341 -297 782 -372 980 -75 198 -152 411
-171 473 -68 225 -36 314 122 343 70 12 104 32 104 59 0 51 -130 64 -500 51
-182 -7 -391 -7 -580 -1 -162 5 -364 10 -448 10 -148 0 -154 -1 -177 -24z"/>
</g>
</svg>
